<svg id="Layer_1" data-name="Layer 1" xmlns="http://www.w3.org/2000/svg" viewBox="0 0 120 120">
  <defs>
    <style>
      .cls-1 {
        fill: #f68a1f;
      }

      .cls-2 {
        fill: #9b4928;
      }

      .cls-3 {
        fill: #593f99;
      }

      .cls-4 {
        fill: #523695;
      }
    </style>
  </defs>
  <title>Bling-Bling</title>
  <g>
    <rect class="cls-1" x="10" width="10" height="10"/>
    <rect class="cls-1" x="10" y="10" width="10" height="10"/>
    <rect class="cls-1" x="20" y="10" width="10" height="10"/>
    <rect class="cls-1" x="20" y="20" width="10" height="10"/>
    <rect class="cls-1" x="30" y="20" width="10" height="10"/>
    <rect class="cls-1" x="30" y="30" width="10" height="10"/>
    <rect class="cls-1" x="40" y="30" width="10" height="10"/>
    <rect class="cls-2" x="50" y="30" width="10" height="10"/>
    <rect class="cls-2" x="60" y="30" width="10" height="10"/>
    <rect class="cls-2" x="70" y="30" width="10" height="10"/>
    <rect class="cls-1" x="80" y="30" width="10" height="10"/>
    <rect class="cls-1" x="80" y="20" width="10" height="10"/>
    <rect class="cls-1" x="90" y="20" width="10" height="10"/>
    <rect class="cls-1" x="90" y="10" width="10" height="10"/>
    <rect class="cls-1" x="100" y="10" width="10" height="10"/>
    <rect class="cls-1" x="100" width="10" height="10"/>
    <rect class="cls-2" x="60" y="40" width="10" height="10"/>
    <rect class="cls-2" x="70" y="40" width="10" height="10"/>
    <rect class="cls-2" x="50" y="40" width="10" height="10"/>
    <rect class="cls-1" x="50" y="50" width="10" height="10"/>
    <rect class="cls-1" x="60" y="50" width="10" height="10"/>
    <rect class="cls-1" x="70" y="50" width="10" height="10"/>
    <rect class="cls-1" x="80" y="60" width="10" height="10"/>
    <rect class="cls-1" x="80" y="70" width="10" height="10"/>
    <rect class="cls-1" x="80" y="80" width="10" height="10"/>
    <rect class="cls-1" x="70" y="90" width="10" height="10"/>
    <rect class="cls-1" x="60" y="90" width="10" height="10"/>
    <rect class="cls-1" x="50" y="90" width="10" height="10"/>
    <rect class="cls-1" x="40" y="80" width="10" height="10"/>
    <rect class="cls-1" x="40" y="70" width="10" height="10"/>
    <rect class="cls-1" x="40" y="60" width="10" height="10"/>
    <rect class="cls-2" x="50" y="60" width="10" height="10"/>
    <rect class="cls-1" x="50" y="70" width="10" height="10"/>
    <rect class="cls-2" x="50" y="80" width="10" height="10"/>
    <rect class="cls-1" x="60" y="80" width="10" height="10"/>
    <rect class="cls-2" x="70" y="80" width="10" height="10"/>
    <rect class="cls-1" x="70" y="70" width="10" height="10"/>
    <rect class="cls-2" x="70" y="60" width="10" height="10"/>
    <rect class="cls-1" x="60" y="60" width="10" height="10"/>
    <rect class="cls-2" x="60" y="70" width="10" height="10"/>
    <polygon class="cls-3" points="120 20 120 80 110 80 110 100 100 100 100 110 90 110 90 120 30 120 30 110 10 110 10 90 0 90 0 20 20 20 20 30 30 30 30 40 50 40 50 60 40 60 40 90 50 90 50 100 80 100 80 90 90 90 90 60 80 60 80 40 90 40 90 30 100 30 100 20 120 20"/>
    <polygon class="cls-3" points="90 10 90 20 80 20 80 30 40 30 40 20 30 20 30 10 90 10"/>
    <polygon class="cls-4" points="30 110 30 120 0 120 0 90 10 90 10 110 30 110"/>
    <polygon class="cls-4" points="120 80 120 120 90 120 90 110 100 110 100 100 110 100 110 80 120 80"/>
  </g>
</svg>
